<?xml version="1.0" standalone="no"?>
<!DOCTYPE svg PUBLIC "-//W3C//DTD SVG 20010904//EN"
 "http://www.w3.org/TR/2001/REC-SVG-20010904/DTD/svg10.dtd">
<svg version="1.0" xmlns="http://www.w3.org/2000/svg"
 width="563.000000pt" height="563.000000pt" viewBox="0 0 563.000000 563.000000"
 preserveAspectRatio="xMidYMid meet">
<metadata>
Created by potrace 1.11, written by Peter Selinger 2001-2013
</metadata>
<g transform="translate(0.000000,563.000000) scale(0.100000,-0.100000)"
fill="#000000" stroke="none">
<path d="M2142 5583 c4 -24 23 -27 25 -3 1 12 -4 20 -13 20 -9 0 -14 -7 -12
-17z"/>
<path d="M2250 5580 c0 -5 -6 -10 -14 -10 -15 0 -30 -27 -27 -47 1 -7 -6 -13
-15 -13 -10 0 -14 -5 -10 -15 3 -9 0 -15 -10 -15 -10 0 -13 -7 -8 -25 7 -27
-4 -33 -25 -12 -10 10 -11 9 -6 -5 5 -13 0 -20 -20 -28 l-28 -11 23 -24 c31
-33 40 -31 36 5 -3 31 22 58 39 42 4 -4 5 0 3 8 -7 21 10 52 24 44 6 -4 8 -3
4 4 -6 11 68 92 84 92 5 0 12 5 15 10 4 6 -8 10 -29 10 -20 0 -36 -4 -36 -10z"/>
<path d="M2342 5584 c30 -9 27 -32 -8 -79 -39 -50 -78 -72 -99 -55 -7 6 -20 8
-29 4 -12 -4 -13 -10 -6 -24 6 -10 10 -28 10 -40 0 -16 5 -20 15 -16 8 3 15 1
15 -4 0 -6 5 -10 11 -10 7 0 9 10 7 25 -4 21 -1 25 18 25 18 0 22 4 17 17 -5
12 -2 15 9 10 24 -9 49 15 57 53 5 28 12 35 31 36 14 1 34 -6 44 -15 15 -12
17 -13 11 -1 -5 8 -11 24 -13 35 -3 20 -3 20 13 0 14 -19 15 -19 8 -1 -4 13
-3 17 5 12 7 -4 12 -14 12 -22 0 -8 5 -14 11 -14 6 0 9 6 6 14 -6 14 37 29 49
17 3 -3 9 -7 12 -7 26 -5 52 -18 52 -24 0 -11 -54 -7 -62 5 -5 7 -8 6 -8 -1 0
-6 11 -21 25 -34 14 -13 25 -19 25 -13 0 6 -6 14 -12 17 -7 3 -3 3 8 1 14 -4
31 4 51 23 17 15 36 26 42 24 6 -2 11 1 11 7 0 6 -15 12 -32 13 -18 1 -42 2
-53 3 -27 1 -180 15 -230 20 -22 2 -33 2 -23 -1z"/>
<path d="M2105 5550 c3 -5 11 -10 16 -10 6 0 7 5 4 10 -3 6 -11 10 -16 10 -6
0 -7 -4 -4 -10z"/>
<path d="M2710 5540 c9 -16 7 -27 -11 -53 -12 -17 -32 -40 -43 -49 -21 -17
-21 -18 9 -18 17 0 36 5 43 12 9 9 15 9 24 0 22 -22 38 -15 28 13 -7 19 -6 23
4 19 8 -3 17 -1 21 5 3 6 1 11 -4 11 -6 0 -11 5 -11 10 0 6 8 10 17 10 12 0 9
7 -13 30 -35 35 -81 43 -64 10z"/>
<path d="M2804 5524 c16 -14 35 -23 42 -20 7 3 16 1 19 -4 4 -6 17 -7 31 -4
27 7 33 -10 7 -20 -10 -3 -26 -11 -36 -18 -14 -11 -19 -10 -27 2 -5 8 -10 10
-10 4 0 -20 36 -44 67 -44 21 0 33 7 42 23 7 12 32 36 56 52 40 28 42 31 22
37 -36 10 -109 9 -102 -2 7 -11 -15 -13 -40 -4 -13 5 -14 8 -3 15 8 5 -8 9
-42 9 l-55 -1 29 -25z"/>
<path d="M3065 5510 c5 -14 -3 -32 -25 -61 -18 -22 -30 -43 -26 -46 3 -3 28 5
56 19 27 14 50 22 50 17 0 -4 -6 -9 -12 -12 -7 -2 -10 -7 -6 -11 9 -11 143
-43 157 -38 6 2 20 21 31 43 11 21 34 46 50 54 38 20 38 35 0 35 -16 0 -30 -4
-30 -9 0 -11 -40 -22 -53 -14 -5 3 -3 9 4 14 17 10 -12 16 -119 24 -81 5 -83
5 -77 -15z m129 -15 c10 -26 -3 -42 -30 -37 -30 5 -32 22 -3 22 18 0 19 2 9
15 -10 12 -10 15 3 15 8 0 17 -7 21 -15z m66 -55 c0 -5 -4 -10 -10 -10 -5 0
-10 5 -10 10 0 6 5 10 10 10 6 0 10 -4 10 -10z"/>
<path d="M3393 5483 c15 -16 15 -19 -5 -52 -12 -20 -27 -39 -32 -43 -53 -33
-53 -36 -5 -36 26 0 55 -5 65 -10 62 -31 164 -69 164 -60 0 6 8 4 18 -5 10
-10 28 -17 40 -17 13 0 22 -6 22 -15 0 -8 10 -20 23 -26 24 -13 66 -49 104
-91 14 -14 37 -31 51 -36 73 -27 69 -25 41 -31 l-27 -6 27 -58 c15 -32 33 -62
41 -68 13 -8 13 -10 0 -19 -11 -7 -11 -10 -2 -10 8 0 10 -5 6 -12 -12 -20 -13
-91 -2 -105 7 -9 7 -13 0 -13 -17 0 -10 -184 7 -204 8 -9 16 -14 19 -11 11 11
40 -27 35 -46 -5 -19 -33 -27 -33 -9 0 6 -5 10 -10 10 -6 0 -10 -6 -9 -12 1
-7 -3 -26 -10 -42 -7 -18 -8 -33 -3 -38 5 -5 6 -24 2 -43 -6 -29 2 -68 13 -55
59 78 71 89 99 95 21 5 33 3 39 -6 4 -7 5 -16 1 -19 -4 -3 -15 -17 -25 -32
l-17 -28 62 0 c55 1 61 2 46 14 -10 7 -18 20 -18 29 0 11 -5 14 -17 10 -16 -6
-16 -5 -4 10 11 14 11 20 0 34 -9 11 -3 10 18 -6 18 -12 38 -19 44 -15 8 4 8
0 -1 -15 -6 -12 -16 -19 -23 -16 -7 4 -3 -1 7 -9 11 -9 26 -16 33 -16 7 0 13
-4 13 -10 0 -5 18 -10 40 -10 22 0 40 5 40 10 0 6 -7 10 -16 10 -8 0 -12 5 -9
10 3 6 -1 13 -9 16 -9 3 -16 12 -16 19 0 13 28 30 43 27 4 -1 5 9 1 23 -6 23
2 30 29 26 4 0 7 6 7 14 0 8 11 17 25 21 13 3 30 13 37 22 11 15 11 15 -2 6
-8 -6 -29 -16 -47 -23 -27 -11 -35 -11 -47 2 -8 8 -13 17 -10 19 2 3 -2 11
-11 18 -12 10 -15 10 -15 -1 0 -12 -2 -12 -9 0 -5 8 -7 21 -3 29 3 10 1 13 -6
8 -7 -4 -19 9 -32 33 -23 47 -25 58 -7 43 9 -8 21 -6 42 8 l30 20 -28 0 c-16
0 -26 -4 -22 -10 3 -5 1 -10 -4 -10 -6 0 -11 9 -11 21 0 11 5 17 10 14 6 -3
10 1 10 9 0 9 -5 16 -11 16 -5 0 -7 5 -4 11 4 6 13 8 21 5 8 -3 14 -1 14 5 0
6 10 25 22 42 15 21 18 32 10 35 -7 2 -12 14 -12 27 0 13 -6 25 -12 28 -7 3
-3 4 9 4 12 -1 20 -4 17 -8 -2 -4 7 -6 20 -5 l24 1 -27 31 c-14 16 -44 51 -65
77 -22 25 -44 43 -49 40 -6 -3 -7 -1 -3 5 10 16 -72 102 -90 95 -8 -3 -14 -1
-14 5 0 6 4 12 9 14 5 2 -15 32 -46 68 -84 99 -93 110 -152 180 -30 36 -57 69
-61 73 -8 9 -296 36 -380 37 -41 0 -43 -1 -27 -17z m341 -29 c13 -35 -67 -123
-100 -110 -26 10 -15 48 26 88 44 41 64 47 74 22z m156 -148 c0 -3 -4 -8 -10
-11 -5 -3 -10 -1 -10 4 0 6 5 11 10 11 6 0 10 -2 10 -4z m-59 -53 c35 -31 69
-80 69 -98 0 -11 -36 -4 -58 11 -31 21 -75 93 -68 110 8 20 11 18 57 -23z
m234 -164 c9 -14 -38 -84 -71 -105 -22 -15 -27 -15 -40 -2 -20 20 -6 57 36 91
33 28 64 35 75 16z m30 -59 c3 -5 1 -10 -4 -10 -6 0 -11 5 -11 10 0 6 2 10 4
10 3 0 8 -4 11 -10z m50 -50 c3 -5 1 -10 -4 -10 -6 0 -11 5 -11 10 0 6 2 10 4
10 3 0 8 -4 11 -10z m26 -97 c52 -55 62 -93 25 -93 -26 0 -86 60 -86 85 0 8
-4 15 -10 15 -14 0 -12 27 3 33 16 6 37 -6 68 -40z m-143 -89 c13 5 21 -2 30
-26 11 -29 9 -36 -13 -70 -34 -51 -70 -74 -90 -58 -8 6 -19 9 -25 5 -23 -14
35 68 67 94 38 31 29 43 -26 35 -18 -3 -31 -1 -31 5 0 6 7 11 15 11 12 0 13 4
6 19 -16 30 0 33 26 5 15 -16 30 -23 41 -20z m102 -8 c0 -3 -4 -8 -10 -11 -5
-3 -10 -1 -10 4 0 6 5 11 10 11 6 0 10 -2 10 -4z m-20 -46 c0 -5 8 -7 18 -3
14 5 15 3 4 -8 -10 -11 -15 -10 -29 4 -11 11 -13 17 -5 17 7 0 12 -4 12 -10z
m0 -35 c16 -19 1 -19 -24 0 -16 12 -17 15 -4 15 8 0 21 -7 28 -15z m57 -11 c4
-12 -56 -46 -69 -38 -6 4 2 17 18 30 29 23 45 26 51 8z m28 -176 c30 -45 32
-68 6 -68 -27 0 -72 40 -95 85 -17 30 -18 38 -6 45 20 12 65 -17 95 -62z
m-105 -28 c0 -5 -4 -10 -10 -10 -5 0 -10 5 -10 10 0 6 5 10 10 10 6 0 10 -4
10 -10z m-5 -30 c8 -13 -5 -13 -25 0 -13 8 -13 10 2 10 9 0 20 -4 23 -10z
m-120 -10 c3 -6 -4 -10 -17 -10 -18 0 -20 2 -8 10 19 12 18 12 25 0z m245 -46
c0 -14 -3 -14 -15 -4 -8 7 -15 14 -15 16 0 2 7 4 15 4 8 0 15 -7 15 -16z m-6
-40 c7 -17 -6 -18 -22 -2 -7 7 -12 15 -12 20 0 12 28 -2 34 -18z"/>
<path d="M2010 5470 c0 -5 5 -10 10 -10 6 0 10 5 10 10 0 6 -4 10 -10 10 -5 0
-10 -4 -10 -10z"/>
<path d="M2075 5470 c3 -5 8 -10 11 -10 2 0 4 5 4 10 0 6 -5 10 -11 10 -5 0
-7 -4 -4 -10z"/>
<path d="M2410 5469 c0 -5 4 -8 9 -4 5 3 17 -5 25 -17 19 -27 32 -18 16 11
-11 22 -50 29 -50 10z"/>
<path d="M2005 5423 c-3 -8 -2 -20 2 -26 4 -7 -1 -6 -10 2 -16 12 -17 12 -10
-5 9 -26 69 -105 96 -127 12 -10 15 -15 7 -11 -13 7 -13 5 -2 -9 11 -13 17
-14 33 -4 22 14 25 27 5 27 -16 0 -76 56 -76 72 0 6 -6 19 -14 27 -24 27 -23
44 4 51 l25 6 -27 6 c-18 3 -29 0 -33 -9z"/>
<path d="M2567 5424 c-11 -11 3 -24 18 -18 8 4 12 10 9 15 -6 11 -18 12 -27 3z"/>
<path d="M2313 5400 c1 -11 7 -22 14 -24 16 -6 17 10 2 20 -8 4 -7 9 2 15 11
7 10 9 -3 9 -11 0 -16 -7 -15 -20z"/>
<path d="M2170 5396 c0 -9 7 -16 16 -16 9 0 14 5 12 12 -6 18 -28 21 -28 4z"/>
<path d="M1957 5364 c3 -8 11 -14 19 -14 21 0 17 17 -5 23 -14 3 -18 1 -14 -9z"/>
<path d="M1896 5363 c-11 -11 -6 -21 14 -26 12 -3 20 0 20 8 0 14 -25 27 -34
18z"/>
<path d="M2226 5345 c4 -8 10 -12 15 -9 11 6 2 24 -11 24 -5 0 -7 -7 -4 -15z"/>
<path d="M2164 5323 c3 -22 12 -24 29 -6 14 17 14 18 -7 18 -13 0 -23 -5 -22
-12z"/>
<path d="M1790 5259 c0 -5 5 -7 10 -4 6 3 10 8 10 11 0 2 -4 4 -10 4 -5 0 -10
-5 -10 -11z"/>
<path d="M1900 5258 c0 -9 7 -19 16 -22 15 -6 15 -4 3 11 -7 10 -15 20 -16 22
-2 2 -3 -3 -3 -11z"/>
<path d="M2041 5190 c-9 -28 -41 -43 -41 -20 0 6 6 10 13 10 9 0 8 3 -2 9 -11
7 -11 9 0 14 9 3 10 6 2 6 -6 1 -29 -20 -49 -45 -42 -51 -76 -69 -102 -55 -19
10 -58 -11 -49 -26 3 -5 -2 -19 -12 -32 -16 -20 -18 -21 -16 -4 0 10 4 24 8
30 9 14 1 19 -37 21 -16 1 -37 9 -46 17 -24 22 -55 19 -84 -8 -23 -21 -23 -24
-7 -34 11 -7 23 -8 34 -1 13 7 27 2 56 -21 46 -36 91 -94 91 -115 0 -37 -93 1
-117 48 -18 36 -43 66 -54 66 -5 0 -6 -7 -2 -16 4 -10 0 -20 -10 -26 -23 -12
-21 -23 6 -35 21 -10 21 -10 -6 -10 -27 0 -56 -26 -57 -50 0 -7 7 -13 15 -13
9 0 12 6 8 16 -3 9 0 20 7 24 15 9 42 2 36 -9 -3 -4 8 -7 22 -6 20 0 26 -5 24
-16 -3 -22 22 -31 53 -19 14 5 32 7 40 4 9 -4 24 1 33 9 11 10 23 13 31 8 10
-6 9 -10 -4 -15 -10 -3 -13 -11 -9 -18 5 -7 10 -31 12 -53 2 -22 5 -42 8 -44
2 -3 17 7 32 21 36 34 82 62 82 51 0 -5 -14 -20 -31 -32 -35 -26 -27 -51 10
-32 30 17 26 -3 -5 -28 -32 -25 -60 -27 -72 -5 -8 14 -10 13 -16 -9 -3 -14 -3
-33 1 -43 4 -11 3 -15 -5 -10 -6 3 -14 1 -17 -5 -4 -6 2 -13 14 -16 27 -7 24
-35 -5 -47 -13 -6 -21 -19 -21 -34 0 -71 -88 -39 -137 49 -10 19 -21 28 -23
22 -3 -7 5 -28 16 -47 12 -18 21 -41 21 -50 0 -10 5 -14 10 -11 6 4 27 -3 46
-14 38 -23 74 -15 74 14 0 9 10 15 25 15 14 0 25 -5 25 -11 0 -6 -7 -9 -15 -5
-11 4 -15 -1 -15 -17 0 -24 -34 -52 -52 -41 -6 4 -9 1 -6 -7 3 -8 1 -22 -4
-31 -7 -14 -5 -18 8 -18 9 0 14 6 11 14 -3 7 3 20 13 29 16 13 19 14 24 1 3
-9 1 -12 -4 -9 -6 3 -10 -3 -10 -14 0 -12 5 -21 10 -21 6 0 10 -5 10 -11 0 -6
-7 -9 -15 -5 -8 3 -15 1 -15 -5 0 -5 8 -13 18 -16 9 -4 20 -11 24 -17 5 -7 8
-3 8 9 1 24 24 53 63 78 39 25 46 14 11 -18 -16 -15 -23 -24 -16 -20 6 3 12 1
12 -6 0 -6 11 0 25 15 14 15 25 24 25 21 0 -7 -22 -47 -38 -67 -18 -22 -8 -26
81 -26 42 0 78 -1 80 -2 1 -1 32 -2 70 -4 57 -2 67 0 67 15 0 9 8 25 18 36 9
10 14 14 10 9 -9 -12 -11 -46 -2 -46 3 0 20 10 37 22 30 22 30 11 -1 -24 -14
-17 -12 -18 39 -19 30 0 99 -2 155 -4 96 -4 101 -3 110 18 6 12 9 16 7 10 -4
-18 23 -16 55 4 l27 17 -19 -22 c-11 -12 -17 -25 -13 -28 5 -6 136 -14 259
-16 31 -1 64 4 71 11 16 13 29 61 16 61 -4 0 -2 13 4 30 6 16 8 32 5 35 -8 8
-119 14 -563 31 -88 3 -218 9 -290 13 l-130 6 1 275 c0 294 2 340 16 340 4 0
8 6 8 14 0 7 9 25 21 40 20 26 20 26 1 26 -13 0 -24 -10 -31 -30z m-71 -100
c0 -5 -2 -10 -4 -10 -3 0 -8 5 -11 10 -3 6 -1 10 4 10 6 0 11 -4 11 -10z
m-107 -50 c-11 -19 -22 -26 -34 -23 -11 3 -19 10 -19 15 0 6 9 8 20 5 16 -4
18 -2 10 13 -8 15 -5 18 15 18 24 0 24 -1 8 -28z m-28 -50 c3 -6 -1 -7 -9 -4
-18 7 -21 14 -7 14 6 0 13 -4 16 -10z"/>
<path d="M1835 5170 c-3 -5 1 -10 10 -10 9 0 13 5 10 10 -3 6 -8 10 -10 10 -2
0 -7 -4 -10 -10z"/>
<path d="M1805 5129 c-9 -14 -2 -20 14 -10 8 6 9 11 3 15 -6 3 -14 1 -17 -5z"/>
<path d="M2410 5123 c-68 -22 -96 -45 -121 -102 -26 -59 -19 -82 32 -105 45
-20 79 -52 79 -74 0 -12 -5 -11 -26 3 -25 16 -25 16 -15 -3 7 -13 7 -22 -1
-30 -7 -7 -8 -15 -4 -19 4 -4 11 -1 16 7 8 12 10 12 16 -3 3 -9 10 -17 16 -17
5 0 7 4 3 10 -3 5 7 5 25 -1 16 -6 30 -14 30 -19 0 -4 8 -10 18 -12 57 -15
152 89 152 166 0 64 -45 146 -95 172 -44 23 -101 35 -125 27z m92 -213 c20 -1
21 -2 6 -11 -21 -12 -50 1 -72 33 -26 37 -18 42 13 9 16 -17 39 -31 53 -31z"/>
<path d="M1580 5060 c0 -5 4 -10 9 -10 6 0 13 5 16 10 3 6 -1 10 -9 10 -9 0
-16 -4 -16 -10z"/>
<path d="M1445 4930 c-3 -5 -1 -10 4 -10 6 0 11 5 11 10 0 6 -2 10 -4 10 -3 0
-8 -4 -11 -10z"/>
<path d="M1526 4885 c-3 -8 -14 -15 -25 -15 -20 0 -51 -24 -51 -41 0 -5 7 -9
15 -9 8 0 15 3 15 8 0 4 13 16 30 27 30 20 47 45 31 45 -5 0 -11 -7 -15 -15z"/>
<path d="M1582 4814 c-40 -54 -75 -73 -102 -57 -19 13 -30 8 -30 -14 0 -25 30
-26 85 -2 37 17 56 31 60 47 3 13 9 21 14 18 4 -3 8 8 9 24 0 17 0 30 -1 30
-1 -1 -17 -21 -35 -46z"/>
<path d="M1400 4830 c0 -5 5 -10 10 -10 6 0 10 5 10 10 0 6 -4 10 -10 10 -5 0
-10 -4 -10 -10z"/>
<path d="M4317 4828 c-2 -8 1 -22 9 -32 19 -26 -2 -57 -33 -50 -18 5 -22 3
-17 -10 3 -9 2 -16 -4 -16 -9 0 -9 -7 -3 -40 1 -3 17 12 35 33 40 44 54 46 80
10 11 -14 14 -23 8 -19 -7 4 -21 -9 -36 -33 -27 -42 -54 -56 -85 -46 -22 7
-34 -6 -25 -29 4 -11 17 -15 39 -13 18 1 31 5 29 9 -3 4 4 6 13 6 10 0 23 0
28 2 24 6 36 -2 34 -22 -1 -13 10 -49 26 -81 25 -53 26 -59 11 -70 -15 -11
-13 -14 19 -29 19 -8 38 -12 41 -7 3 5 -3 9 -12 9 -14 0 -15 3 -6 12 9 9 15 9
23 1 10 -10 78 3 94 19 15 14 -7 69 -31 78 -13 5 -24 16 -24 24 0 20 -34 38
-55 29 -16 -5 -16 -8 3 -22 18 -14 62 -83 62 -96 0 -3 -10 -5 -23 -5 -33 0
-62 24 -91 77 -27 47 -26 51 9 67 6 3 2 10 -8 16 -15 10 -16 13 -2 26 11 11
12 20 5 34 -12 22 -13 31 -2 28 18 -7 10 16 -20 56 -18 23 -38 41 -45 39 -10
-4 -40 37 -34 45 2 2 1 6 -2 8 -2 3 -7 -1 -10 -8z"/>
<path d="M1430 4811 c0 -12 6 -21 15 -21 8 0 15 3 15 6 0 3 -7 12 -15 20 -13
14 -15 13 -15 -5z"/>
<path d="M4305 4790 c3 -5 8 -10 11 -10 2 0 4 5 4 10 0 6 -5 10 -11 10 -5 0
-7 -4 -4 -10z"/>
<path d="M1270 4740 c0 -5 4 -10 9 -10 6 0 13 5 16 10 3 6 -1 10 -9 10 -9 0
-16 -4 -16 -10z"/>
<path d="M1236 4723 c-4 -9 -1 -20 6 -25 10 -8 10 -11 1 -15 -19 -7 -16 -36 3
-29 8 3 13 2 10 -3 -3 -4 10 -23 29 -41 19 -19 35 -39 35 -46 0 -7 14 -18 30
-26 17 -7 30 -20 30 -28 0 -10 5 -7 16 8 8 12 24 22 35 22 10 0 19 4 19 9 0
12 -26 21 -61 21 -32 0 -109 61 -109 87 0 8 -7 21 -15 29 -8 8 -12 21 -9 28 3
8 1 17 -4 20 -6 3 -13 -2 -16 -11z"/>
<path d="M1320 4715 c0 -8 7 -15 15 -15 8 0 19 -9 25 -20 15 -29 32 -25 19 4
-14 30 -59 53 -59 31z"/>
<path d="M1400 4631 c0 -16 42 -51 59 -50 13 1 12 2 -1 6 -20 5 -24 23 -6 23
17 0 -2 16 -29 25 -14 4 -23 2 -23 -4z"/>
<path d="M1485 4590 c3 -5 10 -10 16 -10 5 0 9 5 9 10 0 6 -7 10 -16 10 -8 0
-12 -4 -9 -10z"/>
<path d="M1065 4571 c-3 -5 5 -11 17 -13 15 -2 24 -11 26 -25 4 -26 29 -30 56
-10 18 13 18 14 2 20 -10 4 -22 5 -27 2 -5 -4 -19 3 -31 14 -24 23 -34 26 -43
12z"/>
<path d="M4350 4570 c-12 -8 -11 -10 8 -10 12 0 22 5 22 10 0 13 -11 13 -30 0z"/>
<path d="M1460 4561 c0 -14 35 -32 45 -23 5 4 5 2 2 -5 -4 -6 -1 -14 5 -16 8
-3 6 -6 -4 -6 -11 -1 -18 -9 -18 -21 0 -18 1 -18 35 3 41 26 42 32 13 51 -32
20 -78 31 -78 17z"/>
<path d="M4553 4546 c7 -14 13 -23 15 -21 7 6 -9 45 -18 45 -4 0 -3 -11 3 -24z"/>
<path d="M1098 4493 c-10 -2 -18 -9 -18 -14 0 -5 -8 -9 -18 -9 -11 0 -18 -7
-18 -20 0 -18 3 -17 31 8 16 15 34 30 40 34 5 5 7 7 5 7 -3 -1 -13 -3 -22 -6z"/>
<path d="M1196 4455 c-32 -42 -81 -69 -104 -59 -10 4 -21 6 -26 5 -4 -1 -14 3
-20 9 -7 5 -15 7 -18 4 -3 -3 16 -29 43 -57 52 -55 65 -97 30 -97 -10 0 -24 7
-31 15 -9 10 -16 12 -25 5 -8 -6 -15 -6 -23 2 -19 19 -14 25 24 33 47 8 36 19
-22 20 -54 1 -63 -9 -37 -38 17 -19 43 -69 43 -82 0 -3 -15 -5 -34 -5 -41 0
-81 30 -104 78 -9 19 -23 38 -31 40 -8 3 -11 0 -7 -6 3 -6 -4 -18 -16 -26
l-22 -16 23 0 c25 0 60 -35 61 -61 0 -10 -11 -20 -26 -23 -26 -7 -26 -7 -8
-27 10 -12 26 -18 36 -15 13 3 18 -1 16 -11 -2 -9 3 -18 10 -20 8 -3 10 1 6
11 -5 14 0 15 31 11 21 -2 40 -7 43 -9 6 -6 -50 -55 -63 -55 -16 0 -45 25 -38
32 3 4 -1 7 -10 7 -9 0 -22 9 -29 19 -12 20 -38 18 -38 -3 0 -19 -84 -102
-108 -108 -13 -4 -28 0 -37 9 -8 8 -15 10 -15 4 0 -6 -4 -11 -10 -11 -16 0
-12 46 5 60 8 7 15 9 15 4 1 -5 11 3 23 17 26 31 88 69 111 69 14 0 14 2 -1
20 -10 11 -27 20 -39 20 -12 0 -24 5 -26 11 -2 5 -11 7 -22 3 -12 -5 -14 -9
-6 -14 17 -10 2 -33 -17 -26 -10 4 -13 1 -11 -12 2 -9 10 -16 16 -14 7 1 12
-2 12 -8 0 -5 -5 -10 -11 -10 -5 0 -8 -4 -4 -9 3 -5 1 -12 -5 -16 -5 -3 -10
-2 -10 4 0 6 -7 8 -15 5 -8 -4 -12 -10 -9 -15 3 -5 -4 -19 -15 -31 -23 -24
-27 -58 -9 -76 13 -13 22 -53 10 -49 -4 1 -8 -2 -9 -8 -5 -18 21 -10 32 10 12
24 58 35 49 12 -3 -8 2 -17 10 -20 11 -4 16 0 17 11 0 9 5 4 9 -12 5 -16 6
-34 3 -40 -3 -6 0 -5 8 2 18 17 39 15 39 -3 0 -8 -5 -15 -11 -15 -6 0 -8 -9
-4 -20 3 -11 2 -27 -3 -36 -8 -15 -10 -15 -15 0 -4 9 -13 13 -21 10 -8 -3 -12
-12 -9 -20 3 -8 0 -14 -6 -14 -6 0 -11 -6 -11 -12 0 -22 -14 -36 -43 -43 -23
-6 -27 -4 -27 15 0 13 -5 20 -12 18 -9 -3 -13 -33 -14 -97 -1 -83 0 -93 19
-103 16 -8 22 -8 25 1 2 6 13 11 23 11 11 0 18 -4 15 -9 -3 -5 1 -11 8 -14 15
-6 15 -7 -12 -87 -3 -8 -6 -20 -8 -27 -1 -7 -11 -25 -23 -41 -11 -16 -17 -32
-13 -36 4 -4 -1 -12 -10 -17 -12 -6 -16 -23 -16 -56 0 -27 3 -41 8 -33 4 7 13
9 20 5 8 -5 11 -4 7 2 -8 12 49 72 80 84 26 10 74 -3 55 -15 -7 -4 -18 -22
-26 -39 -17 -42 -78 -77 -105 -60 -22 13 -31 8 -31 -19 0 -11 7 -18 20 -18 11
0 20 -5 20 -11 0 -5 -4 -8 -9 -5 -4 3 -17 -2 -27 -10 -10 -9 -13 -13 -7 -9 38
19 68 -51 32 -73 -11 -7 -24 -10 -29 -7 -14 9 -12 -6 4 -37 13 -25 13 -28 -2
-28 -11 -1 -6 -7 13 -17 19 -11 25 -18 16 -21 -7 -2 -16 0 -20 6 -4 6 -12 7
-19 3 -10 -6 -10 -14 -1 -37 6 -16 13 -23 16 -16 3 6 10 12 16 12 7 0 -1 -11
-16 -25 -15 -14 -27 -35 -27 -45 0 -30 17 -24 29 10 5 17 14 29 19 28 6 -2 19
7 29 19 23 27 67 45 88 37 17 -7 21 -34 5 -34 -5 0 -10 -6 -10 -14 0 -8 -11
-27 -24 -42 -18 -22 -32 -28 -64 -28 -22 -1 -44 -5 -48 -9 -17 -16 -11 -39 12
-49 13 -6 24 -17 24 -25 0 -7 6 -13 13 -13 7 0 13 -9 14 -20 1 -11 -3 -20 -8
-20 -6 0 -7 -4 -4 -10 3 -6 -5 -10 -19 -10 -13 0 -27 -6 -29 -12 -4 -10 -6
-10 -6 0 -1 6 -5 12 -10 12 -4 0 -9 -34 -10 -75 -1 -41 2 -75 7 -75 5 0 7 -12
4 -27 -5 -26 -4 -27 14 -13 10 8 36 32 58 52 48 46 73 55 93 35 13 -12 13 -18
1 -38 -36 -64 -97 -110 -122 -91 -6 5 -19 9 -29 9 -15 0 -15 -3 5 -24 12 -12
27 -23 35 -23 7 0 13 -4 13 -9 0 -5 15 -14 33 -20 21 -8 28 -14 20 -19 -9 -6
6 -26 46 -66 33 -33 64 -55 70 -52 6 4 11 2 11 -5 0 -22 79 -89 105 -89 28 0
31 -9 13 -29 -11 -11 -10 -13 4 -8 10 3 20 2 24 -4 4 -7 10 -6 18 0 7 6 15 8
19 5 3 -3 8 3 11 14 7 20 74 78 82 70 2 -3 -7 -15 -21 -28 -14 -13 -25 -27
-25 -32 0 -15 39 -8 49 9 5 10 13 15 17 11 11 -12 -25 -58 -54 -69 -19 -7 -32
-7 -44 0 -17 11 -48 5 -48 -8 0 -4 10 -17 23 -29 19 -18 25 -19 46 -8 17 9 37
10 70 4 25 -5 70 -10 99 -12 42 -3 60 -11 91 -38 22 -18 40 -40 40 -48 2 -26
16 -40 31 -30 11 7 11 12 2 23 -10 12 -8 17 12 30 21 14 26 14 45 0 18 -12 25
-12 38 -2 13 11 17 10 28 -4 7 -9 22 -17 34 -17 11 0 21 -5 21 -11 0 -5 4 -7
10 -4 5 3 20 0 32 -7 13 -7 26 -12 30 -13 3 0 10 -3 14 -8 13 -13 -21 -8 -35
6 -11 9 -10 7 0 -11 14 -22 34 -29 42 -14 8 12 110 8 114 -5 2 -6 -4 -13 -14
-15 -15 -3 -14 -6 7 -26 l25 -23 -24 -18 -23 -18 23 1 c13 1 35 14 48 29 13
15 37 35 55 44 l31 15 -30 -32 -30 -33 28 5 c35 7 34 -7 -4 -43 -35 -33 -54
-37 -63 -13 -8 22 -17 13 -25 -28 -5 -25 -2 -37 14 -53 18 -18 18 -20 2 -23
-9 -2 -17 -10 -17 -18 0 -11 -6 -13 -22 -8 -30 8 -36 16 -20 21 20 8 14 23
-10 23 -29 1 -56 21 -51 38 6 16 -12 15 -26 -2 -9 -10 -8 -16 4 -26 8 -7 15
-9 15 -6 0 17 73 -72 90 -109 11 -22 20 -35 20 -30 1 12 40 -33 40 -46 0 -5
-9 -9 -20 -9 -16 0 -20 -7 -20 -30 0 -16 2 -30 3 -30 2 0 17 12 33 26 45 40
74 57 82 50 4 -4 -1 -12 -11 -17 -9 -6 -17 -15 -17 -21 0 -6 11 -1 25 12 30
28 31 22 5 -30 -22 -43 -68 -74 -89 -60 -16 9 -51 -18 -45 -34 3 -7 16 -11 30
-11 18 1 40 -12 70 -42 24 -23 44 -47 44 -52 0 -12 29 -41 41 -41 5 0 9 5 9
10 0 6 -4 9 -9 8 -5 -2 -9 0 -10 5 -2 13 14 8 57 -19 33 -21 40 -30 31 -40 -9
-11 -8 -14 5 -14 30 0 99 -48 89 -62 -3 -5 5 -12 17 -15 17 -4 21 -11 17 -29
-7 -37 13 -45 60 -24 63 28 126 35 142 16 9 -10 22 -14 37 -10 15 4 24 2 24
-5 0 -11 40 -10 235 4 33 3 89 7 125 10 36 3 90 7 120 10 30 2 87 7 125 10 39
3 88 8 110 10 22 3 72 7 112 10 40 2 81 9 91 14 11 6 23 7 27 3 5 -4 5 1 2 11
-5 13 -3 17 5 14 7 -2 12 -11 10 -19 -2 -13 6 -14 49 -7 50 8 79 23 79 40 0 5
-8 9 -17 10 -10 0 -13 3 -7 5 20 9 66 -15 60 -31 -7 -20 27 -20 44 0 7 8 16
13 20 10 5 -3 11 1 13 7 3 8 6 6 6 -4 2 -37 41 -8 41 29 0 31 22 72 53 102 20
18 32 22 52 17 16 -4 24 -3 21 3 -4 5 -2 12 4 16 6 4 10 -6 10 -24 0 -43 12
-45 49 -7 23 24 29 35 19 38 -9 4 -6 11 12 26 23 20 24 21 5 22 -17 0 -18 2
-5 10 13 9 12 12 -4 25 -11 8 -15 15 -9 15 6 0 16 -7 23 -15 7 -8 17 -12 23
-8 6 4 7 1 2 -7 -5 -8 -3 -11 6 -8 8 3 13 12 11 21 -2 11 2 15 11 12 7 -3 24
7 37 22 13 15 38 45 57 66 19 21 31 43 27 49 -4 5 0 15 7 20 11 8 11 9 -2 5
-9 -3 -21 -1 -25 3 -5 5 -15 5 -23 1 -11 -7 -7 -13 15 -25 20 -10 24 -15 12
-16 -10 0 -18 -4 -18 -10 0 -5 -6 -7 -14 -4 -8 3 -12 12 -9 20 3 8 0 14 -7 14
-10 0 -10 3 -1 14 16 19 33 78 20 70 -5 -3 -21 -23 -34 -45 -31 -48 -67 -73
-94 -64 -21 6 -21 7 -2 43 10 20 28 46 40 56 12 11 21 25 21 33 0 8 5 11 10 8
11 -7 12 -3 14 45 1 20 -5 32 -15 35 -18 6 -27 30 -21 58 6 28 18 20 37 -27
13 -30 26 -47 42 -51 13 -3 23 -12 23 -20 0 -8 7 -15 15 -15 8 0 15 -6 15 -14
0 -7 -7 -19 -15 -26 -17 -14 -20 -30 -5 -30 6 0 16 11 22 25 10 22 13 24 21
10 8 -15 11 -15 32 -1 14 9 31 16 39 16 9 0 20 9 26 20 7 14 7 20 0 20 -5 0
-10 6 -10 14 0 7 -8 20 -17 27 -16 13 -17 12 -4 -3 16 -21 8 -48 -14 -48 -30
0 -73 30 -87 60 -7 16 -16 30 -20 30 -5 0 -8 7 -8 15 0 24 27 29 55 11 31 -20
32 -20 38 3 3 13 -1 21 -15 24 -17 5 -18 8 -7 29 11 21 11 22 -4 9 -15 -12
-17 -11 -17 13 0 16 -6 26 -14 26 -15 0 -29 27 -21 40 3 5 21 14 40 20 31 10
40 30 14 30 -6 0 -7 -5 -4 -10 3 -5 -3 -10 -14 -10 -12 0 -21 4 -21 9 0 5 -11
8 -25 6 -30 -3 -32 5 -5 28 16 13 20 14 20 2 0 -19 19 -30 32 -17 6 6 19 6 39
-1 25 -10 31 -8 49 11 21 22 40 29 40 14 0 -4 -5 -13 -11 -19 -8 -8 -8 -16 0
-30 10 -15 11 -15 9 -1 -2 9 2 17 7 17 20 2 10 -44 -12 -54 -13 -5 -23 -15
-23 -22 0 -21 15 -15 38 17 12 16 40 40 62 52 22 13 40 27 40 32 0 11 -54 -3
-58 -15 -2 -5 -8 -9 -14 -9 -6 0 -8 6 -5 14 3 8 1 17 -6 19 -11 4 -4 9 38 22
16 5 21 35 5 35 -5 0 -7 -7 -3 -16 5 -13 2 -15 -15 -9 -13 4 -22 2 -22 -4 0
-6 -5 -11 -10 -11 -6 0 -10 6 -8 13 1 6 -2 22 -6 35 -10 29 28 64 59 55 11 -3
17 -2 13 2 -13 14 30 37 48 27 26 -14 53 -3 47 19 -4 13 0 19 11 19 10 0 21
13 27 30 6 16 20 32 30 35 17 6 18 10 8 23 -6 10 1 4 16 -13 16 -16 26 -23 23
-15 -3 8 -1 23 4 33 9 18 10 18 22 1 8 -11 15 -13 19 -7 4 6 0 13 -8 17 -17 6
-21 36 -5 36 6 0 10 6 10 14 0 8 12 17 28 22 20 5 23 8 10 11 -28 7 -21 26 7
21 14 -3 25 -1 25 3 0 5 -7 9 -15 9 -8 0 -15 5 -15 10 0 13 27 13 35 0 8 -13
25 -3 25 15 0 9 -6 12 -16 8 -9 -3 -20 0 -24 7 -9 14 8 60 22 60 4 0 8 7 8 15
0 9 9 15 23 15 20 1 21 1 4 11 -17 10 -17 12 -1 23 15 12 15 13 1 19 -11 4
-21 -1 -28 -16 -25 -46 -90 -123 -129 -152 -33 -24 -40 -34 -35 -52 6 -24 -8
-30 -33 -14 -8 5 -39 -1 -77 -15 -71 -26 -123 -31 -440 -39 -121 -4 -251 -8
-290 -10 -38 -2 -160 -6 -270 -9 -110 -4 -248 -9 -307 -12 l-108 -6 0 -50 c0
-33 4 -47 11 -42 8 5 8 1 0 -14 -11 -20 -10 -20 122 -15 72 2 139 7 147 11 25
9 70 12 70 4 0 -18 270 1 324 24 14 5 17 4 12 -5 -7 -10 16 -12 107 -9 63 1
118 0 121 -3 3 -3 7 -45 8 -92 1 -80 3 -87 20 -81 11 3 20 0 24 -10 3 -9 12
-16 20 -16 8 0 11 -6 8 -15 -3 -8 -9 -13 -13 -12 -13 4 -61 -55 -61 -74 0 -25
17 -24 25 0 7 24 80 91 99 91 26 0 24 -26 -5 -73 -31 -51 -56 -68 -91 -64 -17
1 -23 -3 -24 -21 -1 -14 4 -22 14 -22 13 0 13 -3 -1 -18 -22 -24 -21 -31 3
-25 11 3 20 0 20 -6 0 -6 -4 -11 -9 -11 -9 0 -10 -3 -35 -80 -12 -34 -12 -46
-3 -52 9 -6 9 -8 0 -8 -7 0 -13 -5 -13 -11 0 -17 -149 -163 -185 -181 -79 -42
-135 -68 -138 -66 -2 2 -11 -3 -19 -10 -21 -17 -216 -66 -343 -86 -198 -32
-481 -39 -614 -16 -30 6 -72 10 -94 10 -21 0 -51 6 -65 14 -15 8 -56 24 -91
36 -164 57 -285 173 -321 309 -16 61 -15 1145 1 1222 14 67 46 147 71 175 18
20 18 21 -11 47 -30 27 -68 93 -58 103 3 3 18 -2 33 -12 15 -10 33 -19 41 -20
7 -1 22 -12 32 -25 l18 -22 54 43 c30 24 77 54 106 67 54 25 181 53 239 53 27
0 36 5 44 24 5 13 15 27 22 31 10 6 11 5 1 -6 -7 -7 -13 -19 -13 -26 0 -19 37
-16 50 5 10 15 11 14 6 -6 l-4 -23 146 4 c168 6 184 8 208 28 16 13 16 12 5
-9 l-12 -23 208 1 c275 2 403 9 403 24 0 15 46 59 79 76 32 17 49 0 33 -35 -6
-14 -10 -25 -7 -25 12 0 123 71 139 89 16 18 17 21 3 21 -23 0 -74 47 -81 75
-8 32 -25 32 -62 0 -46 -40 -53 -45 -63 -45 -6 0 -45 -12 -88 -27 l-78 -27
-560 -1 c-308 -1 -571 -4 -585 -8 -14 -3 -36 -8 -50 -10 -130 -23 -267 -128
-328 -251 -49 -100 -66 -150 -39 -114 16 20 64 19 63 -2 -2 -25 -45 -88 -79
-115 -31 -25 -31 -26 -13 -40 17 -13 18 -15 3 -15 -14 0 -17 -9 -17 -42 1 -24
-2 -78 -6 -120 -3 -43 -3 -78 0 -78 4 0 17 7 29 15 23 15 71 10 61 -7 -3 -5
-11 -5 -19 2 -10 8 -18 6 -34 -11 -12 -13 -21 -29 -21 -37 0 -12 4 -11 25 2
37 24 31 3 -9 -32 l-35 -30 1 -111 c1 -61 -2 -114 -5 -117 -4 -4 -100 -8 -214
-10 -215 -3 -243 0 -348 47 -84 37 -175 117 -230 204 -82 128 -136 295 -165
509 -11 83 -22 131 -31 137 -10 6 -10 9 -2 9 10 0 13 37 12 150 0 160 24 405
46 455 7 17 13 44 13 60 1 17 10 48 22 70 11 21 20 45 20 52 0 6 10 29 22 50
13 21 30 50 38 64 31 56 74 114 92 127 10 7 18 20 18 28 0 8 4 13 9 10 4 -3
19 6 31 19 13 14 29 25 37 25 7 0 13 8 13 18 0 14 -2 15 -10 2 -5 -8 -10 -10
-10 -4 0 7 -9 14 -20 17 -21 5 -28 -7 -10 -18 6 -3 10 -11 10 -17 0 -7 -4 -7
-13 1 -10 8 -17 7 -25 -1 -8 -8 -16 -6 -29 8 -17 17 -17 17 0 11 15 -5 16 -2
11 21 -4 15 -11 28 -16 30 -4 2 12 24 37 49 25 24 45 51 45 59 0 21 -5 18 -34
-21z m-71 -95 c-3 -5 -11 -10 -16 -10 -6 0 -7 5 -4 10 3 6 11 10 16 10 6 0 7
-4 4 -10z m-147 -188 c2 -7 -3 -12 -12 -12 -9 0 -16 7 -16 16 0 17 22 14 28
-4z m-98 -67 c0 -8 -4 -15 -10 -15 -5 0 -10 7 -10 15 0 8 5 15 10 15 6 0 10
-7 10 -15z m-13 -52 c3 -7 -3 -9 -16 -6 -12 3 -21 10 -21 15 0 13 32 6 37 -9z
m63 7 c0 -13 -11 -13 -30 0 -12 8 -11 10 8 10 12 0 22 -4 22 -10z m-110 -87
c0 -18 -17 -16 -24 3 -8 22 4 40 15 23 5 -8 9 -20 9 -26z m95 -46 c4 -18 15
-41 24 -51 13 -15 13 -18 1 -14 -25 8 -79 91 -67 106 14 18 34 -2 42 -41z
m-100 -156 c8 -26 -35 -91 -75 -114 -23 -14 -34 -16 -50 -7 -11 6 -25 8 -30 5
-5 -3 -11 -1 -15 5 -3 5 0 10 7 10 7 1 25 18 40 40 23 33 85 78 110 80 4 0 9
-9 13 -19z m1493 -460 c-15 -25 -53 -45 -67 -37 -18 11 -13 25 7 19 10 -2 29
5 43 16 30 25 32 26 17 2z m1053 -4 c-10 -9 -11 -8 -5 6 3 10 9 15 12 12 3 -3
0 -11 -7 -18z m-1297 -245 c8 -13 -23 -52 -40 -52 -8 0 -14 7 -14 15 0 8 7 15
15 15 9 0 12 6 9 15 -6 16 21 22 30 7z m-1344 -372 c0 -5 -2 -10 -4 -10 -3 0
-8 5 -11 10 -3 6 -1 10 4 10 6 0 11 -4 11 -10z m-26 -26 c8 -3 12 -12 9 -20
-4 -11 -9 -12 -19 -3 -8 6 -14 15 -14 20 0 11 3 11 24 3z m66 -204 c0 -5 -4
-10 -9 -10 -6 0 -13 5 -16 10 -3 6 1 10 9 10 9 0 16 -4 16 -10z m152 -51 c21
-41 53 -69 79 -69 10 0 19 -4 19 -10 0 -5 -14 -10 -31 -10 -32 0 -89 48 -89
75 0 7 -7 18 -15 25 -16 13 -10 33 8 27 7 -2 20 -19 29 -38z m-112 -29 c0 -5
-2 -10 -4 -10 -3 0 -8 5 -11 10 -3 6 -1 10 4 10 6 0 11 -4 11 -10z m3504 -55
c-9 -14 -19 -23 -22 -20 -5 4 26 45 35 45 2 0 -4 -11 -13 -25z m26 -40 c-23
-25 -60 -34 -60 -15 0 6 6 10 14 10 8 0 24 9 37 19 32 26 38 17 9 -14z m-320
-10 c-23 -25 -60 -34 -60 -15 0 6 8 10 18 10 10 0 27 7 38 15 29 22 30 18 4
-10z m-2083 -13 c-34 -35 -34 -46 -2 -39 24 4 25 3 12 -17 -22 -32 -64 -53
-78 -39 -19 19 8 71 50 98 47 31 50 31 18 -3z m2500 -18 c-3 -3 -12 -4 -19 -1
-8 3 -5 6 6 6 11 1 17 -2 13 -5z m-266 -65 c40 -32 73 -81 62 -93 -11 -11 -48
-6 -71 10 -26 18 -65 90 -57 104 10 16 25 12 66 -21z m-2621 -4 c0 -11 -41
-25 -53 -18 -8 5 -4 9 13 14 33 9 40 10 40 4z m2477 -44 c9 -5 3 -13 -17 -24
-26 -16 -30 -16 -30 -3 0 9 6 16 13 16 6 0 3 8 -8 16 -19 16 -19 16 5 9 14 -4
31 -10 37 -14z m63 -12 c0 -5 -4 -9 -10 -9 -5 0 -10 7 -10 16 0 8 5 12 10 9 6
-3 10 -10 10 -16z m184 6 c-7 -17 -20 -20 -28 -6 -7 10 3 21 20 21 8 0 11 -6
8 -15z m-230 -39 c-3 -9 -10 -16 -15 -16 -6 0 -5 9 1 21 13 24 24 20 14 -5z
m-2325 0 c34 -18 91 -81 91 -101 0 -21 -62 -19 -87 3 -22 18 -63 86 -63 102 0
14 27 12 59 -4z m2291 -6 c0 -5 -5 -10 -11 -10 -5 0 -7 5 -4 10 3 6 8 10 11
10 2 0 4 -4 4 -10z m-2141 -59 c9 -16 8 -18 -9 -14 -21 5 -25 15 -13 26 9 10
11 9 22 -12z m-19 -41 c0 -5 -2 -10 -4 -10 -3 0 -8 5 -11 10 -3 6 -1 10 4 10
6 0 11 -4 11 -10z m2186 -249 c-6 -9 -56 -22 -56 -14 0 4 40 21 53 22 5 1 6
-3 3 -8z m-126 -125 c0 -3 -4 -8 -10 -11 -5 -3 -10 -1 -10 4 0 6 5 11 10 11 6
0 10 -2 10 -4z m15 -73 c30 -34 30 -39 4 -46 -25 -7 -51 2 -44 14 3 4 -3 17
-14 28 -11 11 -17 22 -13 25 13 14 45 4 67 -21z m-47 -80 c37 -42 42 -73 11
-73 -11 0 -29 5 -40 10 -25 14 -72 88 -63 101 11 19 58 -1 92 -38z m77 17 c4
-6 -5 -10 -20 -10 -15 0 -24 4 -20 10 3 6 12 10 20 10 8 0 17 -4 20 -10z m60
0 c3 -5 1 -10 -4 -10 -6 0 -11 5 -11 10 0 6 2 10 4 10 3 0 8 -4 11 -10z
m-1955 -105 c0 -8 9 -20 20 -27 11 -7 20 -18 20 -25 0 -7 7 -10 17 -6 11 4 14
3 9 -5 -7 -12 5 -16 32 -13 6 1 12 -3 12 -9 0 -17 -56 -16 -78 3 -11 9 -52 83
-52 94 0 2 5 3 10 3 6 0 10 -7 10 -15z m1690 -55 c0 -22 -53 -96 -80 -110 -15
-8 -25 -8 -34 -1 -7 6 -16 8 -19 4 -4 -3 -7 3 -7 14 0 27 105 124 125 116 8
-3 15 -13 15 -23z m-376 -94 c-6 -16 -48 -46 -64 -46 -5 0 -10 10 -10 23 0 17
2 19 10 7 8 -12 13 -11 37 7 34 27 34 26 27 9z m-1051 -23 c-5 -15 -3 -14 10
2 24 32 29 12 7 -32 -21 -44 -73 -89 -91 -78 -6 4 -14 16 -18 28 -6 17 1 28
36 59 48 41 66 48 56 21z m299 -35 c-5 -22 -5 -22 21 -5 37 24 44 21 17 -8
-24 -25 -60 -34 -60 -14 0 11 19 49 24 49 2 0 2 -10 -2 -22z m373 2 c-3 -5
-14 -10 -23 -9 -14 0 -13 2 3 9 27 11 27 11 20 0z"/>
<path d="M1386 4481 c-4 -7 -5 -15 -2 -18 9 -9 19 4 14 18 -4 11 -6 11 -12 0z"/>
<path d="M1576 4435 c-23 -28 -32 -45 -23 -45 18 0 43 28 56 63 6 15 9 27 7
27 -2 0 -20 -20 -40 -45z"/>
<path d="M1447 4463 c-12 -3 -15 -11 -11 -29 5 -20 2 -24 -16 -24 -18 0 -20 3
-11 14 9 11 6 15 -13 18 -21 4 -24 2 -16 -12 5 -10 6 -20 2 -24 -3 -4 0 -11 8
-16 20 -13 63 -13 55 0 -3 6 3 22 14 36 21 27 27 45 14 43 -5 -1 -16 -3 -26
-6z"/>
<path d="M4371 4444 c0 -11 3 -14 6 -6 3 7 2 16 -1 19 -3 4 -6 -2 -5 -13z"/>
<path d="M1318 4438 c17 -17 15 -29 -3 -22 -11 5 -15 -1 -16 -20 -1 -14 -2
-32 -3 -38 -1 -7 8 -13 19 -13 16 0 20 7 21 40 1 48 -4 65 -19 65 -7 0 -7 -4
1 -12z"/>
<path d="M1350 4415 c0 -8 5 -15 10 -15 6 0 10 7 10 15 0 8 -4 15 -10 15 -5 0
-10 -7 -10 -15z"/>
<path d="M4305 4416 c-3 -9 -7 -23 -10 -32 -4 -12 1 -11 21 5 30 24 54 27 72
9 9 -9 12 -9 12 0 0 6 -12 14 -27 18 -16 3 -36 8 -46 11 -10 2 -19 -2 -22 -11z"/>
<path d="M4611 4386 c-19 -23 4 -28 24 -6 15 17 16 20 3 20 -9 0 -21 -6 -27
-14z"/>
<path d="M1355 4380 c-3 -5 1 -10 10 -10 9 0 13 5 10 10 -3 6 -8 10 -10 10 -2
0 -7 -4 -10 -10z"/>
<path d="M4365 4350 c-9 -17 -11 -30 -5 -30 5 0 10 5 10 11 0 6 9 8 20 4 21
-7 24 2 14 29 -9 24 -22 19 -39 -14z"/>
<path d="M1240 4350 c0 -5 5 -10 10 -10 6 0 10 5 10 10 0 6 -4 10 -10 10 -5 0
-10 -4 -10 -10z"/>
<path d="M4573 4343 c-13 -8 -23 -20 -23 -25 0 -13 37 9 44 27 7 18 7 18 -21
-2z"/>
<path d="M4677 4338 c-30 -46 -55 -68 -76 -68 -11 0 -21 4 -21 8 0 7 -33 8
-47 3 -1 -1 8 -11 20 -24 12 -12 36 -40 54 -62 17 -22 34 -37 38 -33 4 4 4 12
-1 19 -17 28 -7 79 21 113 16 19 30 42 31 50 3 22 -1 20 -19 -6z m-57 -92 c0
-3 -4 -8 -10 -11 -5 -3 -10 -1 -10 4 0 6 5 11 10 11 6 0 10 -2 10 -4z"/>
<path d="M4515 4320 c3 -5 8 -10 11 -10 2 0 4 5 4 10 0 6 -5 10 -11 10 -5 0
-7 -4 -4 -10z"/>
<path d="M4757 4303 c-18 -64 -17 -67 24 -101 37 -31 42 -33 69 -22 17 7 27
16 24 21 -3 5 -10 6 -16 3 -7 -5 -9 -2 -5 8 3 9 0 21 -6 27 -19 19 -29 12 -22
-16 6 -26 6 -26 -17 -11 -26 18 -38 51 -15 42 26 -10 27 12 1 39 -29 32 -31
32 -37 10z"/>
<path d="M3994 4299 c-3 -6 -19 -9 -35 -5 -32 6 -42 -3 -29 -24 6 -10 4 -20
-6 -31 -12 -13 -16 -57 -19 -215 -4 -210 -9 -263 -26 -297 -6 -11 -12 -42 -12
-68 0 -26 -4 -46 -9 -43 -4 3 -8 -2 -8 -12 0 -11 -6 -15 -20 -11 -27 7 -26
-17 3 -40 12 -10 30 -35 40 -56 15 -33 20 -37 33 -26 27 22 70 121 94 213 20
77 23 117 24 275 2 203 -2 254 -15 245 -5 -3 -9 -1 -9 5 0 5 4 12 8 15 12 7
15 86 3 86 -5 0 -13 -5 -17 -11z m-4 -54 c19 -22 -12 -50 -40 -35 -25 13 -26
26 -2 39 23 14 28 13 42 -4z"/>
<path d="M1080 4286 c0 -2 7 -7 16 -10 8 -3 12 -2 9 4 -6 10 -25 14 -25 6z"/>
<path d="M830 4245 c0 -8 2 -15 4 -15 2 0 11 -3 20 -6 10 -4 16 -1 16 9 0 8
-7 18 -16 21 -22 9 -24 8 -24 -9z"/>
<path d="M4674 4209 c-5 -9 10 -13 31 -10 6 1 -3 -10 -20 -24 -16 -15 -22 -24
-13 -21 9 2 22 -2 28 -9 7 -8 17 -12 22 -9 5 3 12 -2 14 -13 3 -10 23 -29 45
-41 40 -23 41 -23 61 -5 20 18 21 18 14 -7 -3 -14 -3 -19 0 -12 3 6 10 9 16 6
6 -4 6 2 -1 14 -9 16 -19 20 -43 17 -24 -3 -37 2 -58 25 -15 16 -33 42 -39 59
-13 29 -46 47 -57 30z"/>
<path d="M4930 4077 c0 -19 10 -27 25 -20 17 6 8 33 -11 33 -8 0 -14 -6 -14
-13z"/>
<path d="M4918 4033 c7 -3 16 -2 19 1 4 3 -2 6 -13 5 -11 0 -14 -3 -6 -6z"/>
<path d="M4964 3976 c-25 -34 -36 -41 -64 -41 -43 0 -49 -19 -14 -42 20 -13
29 -14 32 -5 7 22 33 42 55 42 16 0 18 3 9 9 -12 7 -11 14 3 41 23 45 15 44
-21 -4z"/>
<path d="M4870 3990 c0 -5 5 -10 11 -10 5 0 7 5 4 10 -3 6 -8 10 -11 10 -2 0
-4 -4 -4 -10z"/>
<path d="M4855 3959 c-4 -6 -5 -12 -2 -15 2 -3 7 2 10 11 7 17 1 20 -8 4z"/>
<path d="M633 3866 c2 -37 6 -46 20 -46 20 0 40 41 25 51 -5 3 -8 12 -6 20 2
7 -6 15 -19 17 -20 3 -21 -1 -20 -42z"/>
<path d="M4840 3879 c0 -5 5 -7 10 -4 6 3 10 2 10 -4 0 -19 -22 -23 -40 -6
-10 9 -25 15 -32 12 -9 -4 -6 -8 8 -12 11 -4 26 -21 32 -39 18 -50 15 -66 -13
-66 -18 0 -23 -4 -19 -15 10 -25 38 -16 61 20 23 34 23 35 3 45 -26 14 -26 33
-1 25 11 -3 22 -1 26 5 3 5 1 10 -5 10 -7 0 -10 6 -7 14 3 8 -1 17 -9 20 -21
8 -24 8 -24 -5z"/>
<path d="M710 3870 c0 -5 5 -10 10 -10 6 0 10 5 10 10 0 6 -4 10 -10 10 -5 0
-10 -4 -10 -10z"/>
<path d="M4856 3733 c-11 -11 -6 -23 9 -23 8 0 15 4 15 9 0 13 -16 22 -24 14z"/>
<path d="M4816 3660 c8 -39 8 -81 1 -122 -2 -15 2 -40 9 -54 18 -35 18 -54 -2
-54 -9 0 -14 -6 -11 -12 2 -7 20 -13 41 -13 38 -1 55 9 36 20 -14 9 -12 55 3
55 9 0 9 2 -1 9 -11 7 -11 11 2 23 11 11 12 18 4 26 -13 13 4 38 31 47 18 5
67 83 58 91 -3 3 -8 -4 -12 -15 -3 -11 -20 -32 -37 -46 -23 -20 -33 -23 -44
-14 -7 6 -18 8 -24 4 -19 -11 -10 16 15 49 31 41 31 44 -1 42 -19 -1 -24 -5
-20 -18 2 -10 0 -18 -5 -18 -5 0 -9 8 -9 18 0 11 -7 18 -21 18 -18 0 -20 -4
-13 -36z m51 -144 c-3 -7 0 -19 6 -25 8 -8 6 -11 -8 -11 -10 0 -15 3 -12 7 4
3 1 13 -6 21 -9 13 -9 14 1 8 6 -4 12 -2 12 3 0 6 3 11 6 11 3 0 4 -6 1 -14z"/>
<path d="M680 3530 c-13 -8 -12 -10 3 -10 9 0 17 5 17 10 0 12 -1 12 -20 0z"/>
<path d="M4902 3388 c2 -6 -10 -25 -26 -42 -33 -33 -45 -66 -25 -66 7 0 9 3 5
7 -3 4 12 26 35 49 23 23 38 47 35 53 -9 15 -29 14 -24 -1z"/>
<path d="M4815 3380 c-4 -6 5 -10 24 -8 17 1 31 6 31 10 0 12 -48 10 -55 -2z"/>
<path d="M761 3361 c-7 -5 -10 -14 -7 -20 5 -8 11 -7 22 3 24 24 14 35 -15 17z"/>
<path d="M4980 3341 c0 -5 -12 -24 -26 -41 -21 -24 -33 -30 -57 -28 -17 2 -32
-2 -34 -9 -8 -21 27 -27 57 -10 15 9 30 14 34 12 3 -3 4 -2 1 2 -3 3 1 13 9
22 15 18 31 61 22 61 -3 0 -6 -4 -6 -9z"/>
<path d="M4810 3090 c0 -5 7 -10 15 -10 8 0 15 5 15 10 0 6 -7 10 -15 10 -8 0
-15 -4 -15 -10z"/>
<path d="M4930 3072 c0 -5 15 -8 34 -8 19 1 32 4 29 9 -6 10 -63 9 -63 -1z"/>
<path d="M4972 2999 c-27 -47 -64 -68 -85 -50 -12 9 -16 7 -20 -9 -3 -13 0
-23 8 -26 21 -8 120 50 119 69 -1 9 2 14 7 11 5 -3 9 4 9 15 0 35 -15 31 -38
-10z"/>
<path d="M765 2979 c-4 -6 -5 -13 -2 -16 7 -7 27 6 27 18 0 12 -17 12 -25 -2z"/>
<path d="M4800 2920 c0 -5 10 -10 23 -10 18 0 19 2 7 10 -19 13 -30 13 -30 0z"/>
<path d="M4990 2890 c0 -5 5 -10 10 -10 6 0 10 5 10 10 0 6 -4 10 -10 10 -5 0
-10 -4 -10 -10z"/>
<path d="M4785 2880 c-3 -5 1 -10 9 -10 9 0 16 5 16 10 0 6 -4 10 -9 10 -6 0
-13 -4 -16 -10z"/>
<path d="M4990 2835 c-10 -12 -10 -15 4 -15 9 0 16 7 16 15 0 8 -2 15 -4 15
-2 0 -9 -7 -16 -15z"/>
<path d="M4871 2806 c-14 -8 -19 -16 -13 -20 6 -3 14 -1 17 5 4 6 17 14 29 19
12 5 15 9 6 9 -8 0 -26 -6 -39 -13z"/>
<path d="M4750 2793 c-1 -10 -9 -36 -20 -58 -24 -49 -24 -55 -5 -55 15 0 17 4
18 38 2 25 17 32 56 26 22 -4 37 -1 42 8 14 21 11 25 -18 21 -19 -3 -36 3 -50
17 -21 19 -23 19 -23 3z"/>
<path d="M635 2760 c3 -5 13 -10 21 -10 8 0 12 5 9 10 -3 6 -13 10 -21 10 -8
0 -12 -4 -9 -10z"/>
<path d="M4970 2665 c-26 -42 -53 -59 -81 -50 -16 5 -20 3 -17 -11 1 -9 8 -19
14 -21 19 -6 97 60 105 90 10 36 5 34 -21 -8z"/>
<path d="M4745 2610 c4 -6 11 -8 16 -5 14 9 11 15 -7 15 -8 0 -12 -5 -9 -10z"/>
<path d="M4710 2529 c0 -6 6 -23 14 -37 8 -15 17 -35 20 -45 3 -10 10 -15 16
-12 6 3 17 -1 26 -9 20 -20 50 -21 58 -1 4 11 -2 15 -22 15 -32 0 -64 26 -87
70 -16 31 -25 38 -25 19z"/>
<path d="M4810 2526 c0 -17 16 -30 23 -19 3 5 -1 14 -9 21 -12 10 -14 10 -14
-2z"/>
<path d="M4660 2440 c0 -5 5 -10 10 -10 6 0 10 5 10 10 0 6 -4 10 -10 10 -5 0
-10 -4 -10 -10z"/>
<path d="M4710 2439 c0 -5 5 -7 10 -4 6 3 10 8 10 11 0 2 -4 4 -10 4 -5 0 -10
-5 -10 -11z"/>
<path d="M4635 2420 c3 -5 1 -10 -6 -10 -10 0 -10 -3 -1 -12 8 -8 15 -8 27 2
13 11 13 15 3 21 -18 12 -30 11 -23 -1z"/>
<path d="M4670 2329 c-16 -36 -53 -63 -79 -56 -13 3 -29 -7 -50 -29 -17 -18
-40 -34 -51 -36 -17 -3 -16 -6 10 -35 32 -36 66 -36 56 0 -4 15 -2 17 7 8 19
-19 31 -12 14 7 -17 19 -23 37 -9 29 4 -3 25 13 47 34 26 26 46 38 58 35 14
-3 16 0 12 14 -3 11 -1 28 5 40 6 11 7 20 2 20 -5 0 -15 -14 -22 -31z"/>
<path d="M4393 2193 c-9 -3 -9 -11 -2 -31 6 -15 10 -28 10 -29 -4 -15 3 -14
10 2 7 16 8 13 4 -12 -3 -22 -1 -32 7 -30 7 1 12 -5 13 -13 0 -9 12 -16 30
-18 17 -2 35 -8 42 -14 8 -7 16 -1 27 21 20 37 21 62 4 39 -20 -24 -75 -5 -96
33 -26 46 -36 57 -49 52z m77 -108 c7 -9 8 -15 2 -15 -5 0 -12 7 -16 15 -3 8
-4 15 -2 15 2 0 9 -7 16 -15z"/>
<path d="M4376 2117 c3 -10 9 -15 12 -12 3 3 0 11 -7 18 -10 9 -11 8 -5 -6z"/>
<path d="M1250 2047 c0 -17 29 -57 63 -86 26 -22 27 -24 11 -42 -9 -11 -12
-19 -6 -19 6 0 14 5 18 11 4 8 9 7 16 -2 7 -11 11 -11 15 -1 2 6 13 12 23 12
9 0 23 6 29 14 9 11 3 14 -34 19 -52 5 -82 27 -102 75 -13 32 -33 44 -33 19z"/>
<path d="M4410 2040 c0 -5 5 -10 11 -10 5 0 7 5 4 10 -3 6 -8 10 -11 10 -2 0
-4 -4 -4 -10z"/>
<path d="M4360 1985 c-29 -48 -69 -78 -85 -65 -9 7 -16 6 -24 -4 -10 -12 -8
-17 7 -25 11 -6 22 -7 26 -4 3 4 5 -4 4 -17 -2 -12 3 -25 11 -28 10 -3 11 2 6
18 -6 19 -4 22 9 17 9 -4 16 -1 17 6 1 7 2 17 3 24 1 12 48 60 53 56 8 -7 33
-2 33 7 0 6 -7 10 -16 10 -10 0 -14 6 -11 15 12 31 -12 24 -33 -10z"/>
<path d="M3489 1981 c-75 -24 -121 -90 -121 -172 1 -56 8 -73 28 -65 8 3 13 2
13 -2 -4 -27 3 -52 15 -52 8 0 17 -6 19 -12 4 -10 8 -10 15 1 8 11 12 10 23
-8 22 -35 89 -29 135 11 45 40 64 82 64 146 0 102 -99 182 -191 153z m-22
-176 c5 -8 30 -28 56 -45 27 -17 45 -35 42 -40 -10 -16 -61 -11 -77 8 -13 15
-48 79 -48 89 0 9 20 1 27 -12z"/>
<path d="M4170 1980 c0 -5 5 -10 11 -10 5 0 7 5 4 10 -3 6 -8 10 -11 10 -2 0
-4 -4 -4 -10z"/>
<path d="M1468 1943 c7 -3 16 -2 19 1 4 3 -2 6 -13 5 -11 0 -14 -3 -6 -6z"/>
<path d="M1503 1932 c-35 -16 -43 -32 -18 -32 8 0 12 -6 9 -15 -3 -8 -10 -13
-14 -12 -8 2 -10 -3 -10 -24 0 -6 21 9 46 34 27 25 44 49 40 56 -9 13 -12 13
-53 -7z"/>
<path d="M4410 1924 c0 -14 3 -14 15 -4 8 7 15 14 15 16 0 2 -7 4 -15 4 -8 0
-15 -7 -15 -16z"/>
<path d="M4355 1919 c-12 -19 5 -23 22 -6 16 16 16 17 1 17 -9 0 -20 -5 -23
-11z"/>
<path d="M4188 1903 c7 -3 16 -2 19 1 4 3 -2 6 -13 5 -11 0 -14 -3 -6 -6z"/>
<path d="M1598 1863 c-37 -63 -84 -99 -117 -88 -30 9 -52 -4 -41 -25 8 -15 16
-17 51 -9 48 11 63 4 35 -17 -21 -15 -10 -19 13 -5 8 5 11 16 7 27 -5 13 3 26
30 49 26 22 37 41 39 63 2 18 2 32 1 32 -1 0 -9 -12 -18 -27z"/>
<path d="M4225 1830 c-4 -6 3 -10 14 -10 25 0 27 6 6 13 -8 4 -17 2 -20 -3z"/>
<path d="M1436 1815 c4 -8 7 -15 9 -15 2 0 5 7 9 15 3 9 0 15 -9 15 -9 0 -12
-6 -9 -15z"/>
<path d="M4188 1823 c7 -3 16 -2 19 1 4 3 -2 6 -13 5 -11 0 -14 -3 -6 -6z"/>
<path d="M1640 1790 c0 -5 5 -10 10 -10 6 0 10 5 10 10 0 6 -4 10 -10 10 -5 0
-10 -4 -10 -10z"/>
<path d="M1580 1755 c0 -8 5 -15 10 -15 6 0 10 7 10 15 0 8 -4 15 -10 15 -5 0
-10 -7 -10 -15z"/>
<path d="M1610 1719 c0 -5 5 -7 10 -4 6 3 10 8 10 11 0 2 -4 4 -10 4 -5 0 -10
-5 -10 -11z"/>
<path d="M1629 1683 c-10 -11 -10 -14 -1 -9 7 4 12 2 12 -6 0 -19 86 -98 107
-98 15 0 16 -2 3 -10 -8 -5 -10 -10 -4 -10 6 0 14 3 18 7 4 4 15 8 24 8 9 0
18 9 20 20 2 17 -3 20 -41 20 -51 0 -74 16 -94 63 -15 36 -24 39 -44 15z"/>
<path d="M1805 1440 c-3 -5 -2 -10 4 -10 5 0 13 5 16 10 3 6 2 10 -4 10 -5 0
-13 -4 -16 -10z"/>
<path d="M3808 1269 c-7 -4 -9 -11 -5 -15 4 -4 2 -13 -4 -21 -9 -10 -8 -13 0
-13 7 0 10 -4 6 -10 -3 -5 -13 -6 -22 -3 -12 5 -15 2 -10 -10 4 -10 -1 -21
-11 -27 -16 -11 -15 -11 1 -6 10 3 20 6 21 6 2 0 21 22 44 49 41 48 41 49 17
53 -13 3 -29 1 -37 -3z"/>
<path d="M3571 1164 c0 -11 3 -14 6 -6 3 7 2 16 -1 19 -3 4 -6 -2 -5 -13z"/>
</g>
</svg>
